<?xml version="1.0" encoding="utf-8"?>
<!-- Generator: Adobe Illustrator 21.1.0, SVG Export Plug-In . SVG Version: 6.00 Build 0)  -->
<svg version="1.1" id="Layer_1" xmlns="http://www.w3.org/2000/svg" xmlns:xlink="http://www.w3.org/1999/xlink" x="0px" y="0px"
	 viewBox="0 0 25 25" style="enable-background:new 0 0 25 25;" xml:space="preserve">
<style type="text/css">
	.st0{fill:#0061B0;}
	.st1{fill:#FFFFFF;}
	.st2{fill:#D41010;}
</style>
<path class="st0" d="M12.5,0.65C5.96,0.65,0.65,5.96,0.65,12.5S5.96,24.35,12.5,24.35s11.85-5.31,11.85-11.85v0
	C24.34,5.96,19.04,0.66,12.5,0.65"/>
<path class="st1" d="M12.35,19C6.19,16.8,6.68,7.7,6.68,7.7c2.05,0.06,4.06-0.61,5.67-1.89c1.6,1.27,3.6,1.94,5.65,1.87
	c0,0,0.48,9.1-5.67,11.3 M19.26,6.65c-2.5,0.08-4.95-0.74-6.91-2.3c-1.96,1.56-4.41,2.38-6.91,2.3c0,0-0.59,11.09,6.91,13.77
	C19.84,17.74,19.26,6.65,19.26,6.65"/>
<path class="st1" d="M12.49,5.25v14.28c0,0-4.24-0.77-5.29-6.4s-0.8-5.5-0.8-5.5L12.49,5.25z"/>
<path class="st1" d="M20.22,15.27c-0.05,2.5-2.12,4.49-4.62,4.44c-2.5-0.05-4.49-2.12-4.44-4.62c0.05-2.47,2.07-4.44,4.54-4.44
	C18.22,10.68,20.24,12.75,20.22,15.27"/>
<path class="st0" d="M15.53,11.21c-2.24,0-4.06,1.82-4.06,4.06s1.82,4.06,4.06,4.06s4.06-1.82,4.06-4.06S17.77,11.21,15.53,11.21
	 M15.53,20.21c-2.7,0-4.89-2.19-4.89-4.89s2.19-4.89,4.89-4.89s4.89,2.19,4.89,4.89v0C20.41,18.02,18.23,20.2,15.53,20.21"/>
<path class="st2" d="M16.15,15.26l1.2-1.2c0.18-0.18,0.18-0.46,0-0.64c-0.18-0.18-0.46-0.18-0.64,0l-1.2,1.2l-1.2-1.2
	c-0.18-0.18-0.46-0.18-0.64,0c-0.18,0.18-0.18,0.46,0,0.64l1.2,1.2l-1.2,1.2c-0.18,0.18-0.18,0.46,0,0.64
	c0.18,0.18,0.46,0.18,0.64,0l1.2-1.2l1.2,1.2c0.18,0.18,0.46,0.18,0.64,0c0.18-0.18,0.18-0.46,0-0.64L16.15,15.26z"/>
</svg>
