<svg id="Layer_1" data-name="Layer 1" xmlns="http://www.w3.org/2000/svg" xmlns:xlink="http://www.w3.org/1999/xlink" viewBox="0 0 25 25"><defs><style>.cls-1{fill:none;}.cls-2{clip-path:url(#clip-path);}.cls-3{fill:#0061b0;}.cls-4{fill:#fff;}.cls-5{fill:#1cac2e;}</style><clipPath id="clip-path"><rect class="cls-1" x="0.65" y="0.65" width="23.71" height="23.71"/></clipPath></defs><title>SVGs for VOA</title><g class="cls-2"><path class="cls-3" d="M12.5.65A11.85,11.85,0,1,0,24.35,12.5,11.86,11.86,0,0,0,12.5.65"/><path class="cls-4" d="M12.35,19c-6.16-2.2-5.67-11.3-5.67-11.3a8.68,8.68,0,0,0,5.67-1.89A8.64,8.64,0,0,0,18,7.68s.48,9.1-5.67,11.3M19.26,6.65a10.54,10.54,0,0,1-6.91-2.3,10.58,10.58,0,0,1-6.91,2.3s-.59,11.09,6.91,13.77c7.49-2.68,6.91-13.77,6.91-13.77"/><path class="cls-4" d="M12.49,5.25V19.53s-4.24-.77-5.29-6.4-.8-5.5-.8-5.5Z"/><path class="cls-4" d="M20.22,15.27a4.53,4.53,0,1,1-4.52-4.62,4.58,4.58,0,0,1,4.52,4.62"/><path class="cls-3" d="M15.53,11.21a4.06,4.06,0,1,0,4.06,4.06,4.06,4.06,0,0,0-4.06-4.06m0,9a4.89,4.89,0,1,1,4.89-4.89,4.9,4.9,0,0,1-4.89,4.89"/><path class="cls-5" d="M14.93,17.18,13.71,16a.42.42,0,0,1,0-.62.44.44,0,0,1,.62,0l.6.6,2-2a.44.44,0,0,1,.62,0,.45.45,0,0,1,0,.63Z"/></g></svg>