<?xml version="1.0" encoding="utf-8"?>
<!-- Generator: Adobe Illustrator 22.0.1, SVG Export Plug-In . SVG Version: 6.00 Build 0)  -->
<svg version="1.1" id="Layer_1" xmlns="http://www.w3.org/2000/svg" xmlns:xlink="http://www.w3.org/1999/xlink" x="0px" y="0px"
	 viewBox="0 0 512 512" style="enable-background:new 0 0 512 512;" xml:space="preserve">
<style type="text/css">
	.st0{fill:#0061B0;}
	.st1{clip-path:url(#SVGID_2_);fill:#0D73BA;}
	.st2{clip-path:url(#SVGID_2_);fill:#2182C7;}
	.st3{fill:#FFFFFF;}
	.st4{fill:none;}
</style>
<rect x="-0.5" y="-0.604" class="st0" width="512.5" height="511.953"/>
<g>
	<defs>
		<path id="SVGID_1_" d="M58.483-0.402c-32.435,0-58.735,26.296-58.735,58.74v394.466c0,32.435,26.3,58.735,58.735,58.735h394.466
			c30.668,0,55.841-23.496,58.506-53.469V53.067C508.79,23.09,483.618-0.402,452.949-0.402H58.483z"/>
	</defs>
	<clipPath id="SVGID_2_">
		<use xlink:href="#SVGID_1_"  style="overflow:visible;"/>
	</clipPath>
	<path class="st1" d="M515.034,255.568c0,143.214-116.101,259.315-259.315,259.315S-3.596,398.782-3.596,255.568
		S112.505-3.747,255.719-3.747S515.034,112.355,515.034,255.568"/>
	<path class="st2" d="M438.345,255.568c0,100.862-81.765,182.627-182.627,182.627c-100.858,0-182.623-81.765-182.623-182.627
		S154.86,72.941,255.718,72.941C356.58,72.941,438.345,154.706,438.345,255.568"/>
</g>
<g>
	<path class="st3" d="M456.462,339.306l-60.585-166.813h-62.689l-10.542,30.383c11.428,14.561,18.246,32.919,18.246,52.864
		c0,40.368-27.916,74.208-65.493,83.286l-0.099,0.281h63.501l26.991-101.009l27.177,101.009H456.462z"/>
	<path class="st3" d="M234.035,172.694h-60.827l-27.181,101.031l-26.991-101.031H55.538l57.889,166.813h62.685l11.363-31.277
		c-11.251-14.505-17.957-32.712-17.957-52.488C169.518,215.724,196.95,182.117,234.035,172.694"/>
	<path class="st3" d="M255.204,216.287c-21.776,0-39.444,17.663-39.444,39.457c0,21.785,17.667,39.435,39.444,39.435
		c21.789,0,39.461-17.65,39.461-39.435C294.665,233.95,276.993,216.287,255.204,216.287"/>
</g>
<rect x="-0.252" y="-0.402" class="st4" width="511.941" height="511.941"/>
</svg>
