<?xml version="1.0" encoding="utf-8"?>
<!-- Generator: Adobe Illustrator 22.0.1, SVG Export Plug-In . SVG Version: 6.00 Build 0)  -->
<svg version="1.1" id="Layer_1" xmlns="http://www.w3.org/2000/svg" xmlns:xlink="http://www.w3.org/1999/xlink" x="0px" y="0px"
	 viewBox="0 0 1024 1024" style="enable-background:new 0 0 1024 1024;" xml:space="preserve">
<style type="text/css">
	.st0{fill:#0061B0;}
	.st1{clip-path:url(#SVGID_2_);fill:#0D73BA;}
	.st2{clip-path:url(#SVGID_2_);fill:#2182C7;}
	.st3{fill:#FFFFFF;}
	.st4{fill:none;}
</style>
<g>
	<rect x="0.499" y="-0.604" class="st0" width="1023.5" height="1023.484"/>
	<g>
		<defs>
			<path id="SVGID_1_" d="M118.293-0.201C53.517-0.201,0.994,52.313,0.994,117.107v787.777c0,64.776,52.523,117.299,117.299,117.299
				h787.777c61.247,0,111.518-46.923,116.842-106.781V106.58C1017.588,46.713,967.317-0.201,906.071-0.201H118.293z"/>
		</defs>
		<clipPath id="SVGID_2_">
			<use xlink:href="#SVGID_1_"  style="overflow:visible;"/>
		</clipPath>
		<path class="st1" d="M1030.058,510.99c0,286.008-231.863,517.871-517.871,517.871S-5.683,796.998-5.683,510.99
			S226.179-6.88,512.187-6.88S1030.058,224.982,1030.058,510.99"/>
		<path class="st2" d="M876.904,510.99c0,201.429-163.29,364.719-364.719,364.719c-201.421,0-364.711-163.29-364.711-364.719
			s163.29-364.719,364.711-364.719C713.614,146.271,876.904,309.561,876.904,510.99"/>
	</g>
	<g>
		<path class="st3" d="M913.085,678.221L792.093,345.083H666.899l-21.054,60.677c22.823,29.079,36.439,65.742,36.439,105.573
			c0,80.618-55.75,148.199-130.794,166.327l-0.198,0.561h126.816l53.904-201.722l54.275,201.722H913.085z"/>
		<path class="st3" d="M468.882,345.484H347.407L293.124,547.25L239.22,345.484H112.412L228.02,678.622h125.186l22.694-62.463
			c-22.469-28.967-35.861-65.328-35.861-104.822C340.038,431.418,394.822,364.303,468.882,345.484"/>
		<path class="st3" d="M511.159,432.544c-43.489,0-78.772,35.274-78.772,78.798c0,43.506,35.283,78.754,78.772,78.754
			c43.515,0,78.806-35.248,78.806-78.754C589.965,467.818,554.673,432.544,511.159,432.544"/>
	</g>
	<rect x="0.994" y="-0.201" class="st4" width="1022.384" height="1022.384"/>
</g>
</svg>
