<?xml version="1.0" encoding="UTF-8"?>
<svg width="24px" height="24px" viewBox="0 0 24 24" version="1.1" xmlns="http://www.w3.org/2000/svg" xmlns:xlink="http://www.w3.org/1999/xlink">
    <!-- Generator: Sketch 49.1 (51147) - http://www.bohemiancoding.com/sketch -->
    <title>back</title>
    <desc>Created with Sketch.</desc>
    <defs></defs>
    <g id="back" stroke="none" stroke-width="1" fill="none" fill-rule="evenodd">
        <g transform="translate(12.000000, 12.000000) scale(-1, 1) translate(-12.000000, -12.000000) " fill="#B4BCC2" fill-rule="nonzero" id="Shape">
            <path d="M21.3,0.1 L1.8,0.1 C0.8,0.1 0,0.9 0,1.9 L0,21.2 C0,22.2 0.8,23 1.8,23 L21.3,23 C22.3,23 23.1,22.2 23.1,21.2 L23.1,1.9 C23.1,0.9 22.3,0.1 21.3,0.1 Z M21,12.5 L15.1,18.4 C14.6,18.9 13.8,18.9 13.3,18.4 C12.8,17.9 12.8,17.1 13.3,16.6 L17.1,12.9 L3,12.9 C2.3,12.9 1.7,12.3 1.7,11.6 C1.7,10.9 2.3,10.3 3,10.3 L16.9,10.3 L13.2,6.6 C12.7,6.1 12.7,5.3 13.2,4.8 C13.7,4.3 14.5,4.3 15,4.8 L20.9,10.7 C20.9,10.7 20.9,10.7 20.9,10.7 C21.5,11.2 21.5,12 21,12.5 Z"></path>
        </g>
    </g>
</svg>