<svg id="Layer_1" data-name="Layer 1" xmlns="http://www.w3.org/2000/svg" viewBox="0 0 25 25"><defs><style>.cls-1{fill:#b4bcc2;}</style></defs><title>SVGs for VOA</title><path class="cls-1" d="M21.65,7.65h-8V1.87a1.17,1.17,0,0,0-2.34,0V7.65h-8A2.53,2.53,0,0,0,.82,10.18V21.77A2.53,2.53,0,0,0,3.35,24.3h18.3a2.53,2.53,0,0,0,2.53-2.53V10.18A2.53,2.53,0,0,0,21.65,7.65Zm-1.77,6-6.41,6.41a1.39,1.39,0,0,1-1,.41,1.43,1.43,0,0,1-1-.41L5.12,13.67a1.39,1.39,0,0,1,0-2,1.41,1.41,0,0,1,2,0l4.23,4.24V8.76h2.34v7.13l4.23-4.23a1.41,1.41,0,0,1,2,0A1.39,1.39,0,0,1,19.88,13.64Z"/></svg>