<?xml version="1.0" encoding="utf-8"?>
<!-- Generator: Adobe Illustrator 22.0.1, SVG Export Plug-In . SVG Version: 6.00 Build 0)  -->
<svg version="1.1" id="Layer_1" xmlns="http://www.w3.org/2000/svg" xmlns:xlink="http://www.w3.org/1999/xlink" x="0px" y="0px"
	 viewBox="0 0 25 25" style="enable-background:new 0 0 25 25;" xml:space="preserve">
<style type="text/css">
	.st0{fill:#B4BCC2;}
</style>
<g>
	<path class="st0" d="M23.948,21.496l-4.118-4.265c-0.085-0.088-0.062-0.234,0.046-0.291l3.829-2.039
		c0.142-0.075,0.126-0.283-0.025-0.337l-5.302-1.896c0.327-0.935,0.514-1.935,0.514-2.98c0-4.997-4.065-9.062-9.062-9.062
		S0.768,4.69,0.768,9.687s4.065,9.062,9.062,9.062c1.06,0,2.074-0.193,3.021-0.529l1.888,5.199c0.052,0.144,0.248,0.165,0.33,0.036
		l2.332-3.693c0.062-0.099,0.199-0.116,0.284-0.035l3.89,4.143c0.073,0.069,0.187,0.068,0.258-0.003l2.113-2.113
		C24.017,21.684,24.018,21.569,23.948,21.496z M9.83,17.606c-4.366,0-7.919-3.552-7.919-7.919S5.464,1.768,9.83,1.768
		s7.919,3.552,7.919,7.919c0,0.91-0.162,1.781-0.446,2.595l-2.022-0.723c0.203-0.588,0.318-1.216,0.318-1.872
		c0-3.181-2.588-5.769-5.769-5.769S4.061,6.506,4.061,9.687s2.588,5.769,5.769,5.769c0.666,0,1.302-0.119,1.898-0.327l0.733,2.018
		C11.636,17.439,10.753,17.606,9.83,17.606z M14.206,11.175l-1.684-0.602c0.093-0.28,0.155-0.574,0.155-0.885
		c0-1.57-1.277-2.847-2.847-2.847S6.983,8.117,6.983,9.687s1.277,2.847,2.847,2.847c0.315,0,0.614-0.064,0.898-0.159l0.61,1.68
		c-0.473,0.164-0.979,0.257-1.508,0.257c-2.551,0-4.626-2.075-4.626-4.626S7.28,5.061,9.83,5.061s4.626,2.075,4.626,4.626
		C14.456,10.208,14.365,10.707,14.206,11.175z M11.45,10.189l-1.372-0.491C9.93,9.646,9.788,9.788,9.842,9.935l0.497,1.369
		c-0.162,0.051-0.33,0.086-0.509,0.086c-0.94,0-1.704-0.764-1.704-1.704c0-0.94,0.764-1.704,1.704-1.704s1.704,0.764,1.704,1.704
		C11.534,9.863,11.499,10.029,11.45,10.189z"/>
</g>
</svg>