<svg id="Layer_1" data-name="Layer 1" xmlns="http://www.w3.org/2000/svg" viewBox="0 0 25 25"><defs><style>.cls-1{fill:#b4bcc2;}</style></defs><title>SVGs for VOA</title><path class="cls-1" d="M13.15,1.48l3.14,6.35a.71.71,0,0,0,.55.4l7,1a.74.74,0,0,1,.41,1.25l-5.08,4.94a.74.74,0,0,0-.21.65l1.2,7a.73.73,0,0,1-1.06.77l-6.27-3.29a.69.69,0,0,0-.68,0L5.89,23.84a.73.73,0,0,1-1.06-.77l1.2-7a.74.74,0,0,0-.21-.65L.74,10.5a.74.74,0,0,1,.41-1.25l7-1a.71.71,0,0,0,.55-.4l3.14-6.35A.72.72,0,0,1,13.15,1.48Z"/></svg>