<svg id="Layer_1" data-name="Layer 1" xmlns="http://www.w3.org/2000/svg" xmlns:xlink="http://www.w3.org/1999/xlink" viewBox="0 0 25 25"><defs><style>.cls-1{fill:none;}.cls-2{clip-path:url(#clip-path);}.cls-3{fill:#b4bcc2;}</style><clipPath id="clip-path"><rect class="cls-1" x="-300" y="-73.48" width="28.45" height="27.22"/></clipPath></defs><title>SVGs for VOA</title><path class="cls-3" d="M19.92,5.62H2a.77.77,0,0,0-.77.77V21.26A.77.77,0,0,0,2,22H19.92a.76.76,0,0,0,.77-.77V6.39A.76.76,0,0,0,19.92,5.62ZM2.78,7.16H19.16v8.41L16.44,13.8a.91.91,0,0,0-1.28,0L9.79,18,7.56,16.5a.91.91,0,0,0-1.28,0l-3.5,2.75Z"/><path class="cls-3" d="M23,20.54a.76.76,0,0,1-.75-.76V4.48H3.54A.76.76,0,1,1,3.54,3H23.76V19.78A.76.76,0,0,1,23,20.54Z"/><circle class="cls-3" cx="8.53" cy="11.61" r="2.8"/></svg>