<svg id="Layer_1" data-name="Layer 1" xmlns="http://www.w3.org/2000/svg" xmlns:xlink="http://www.w3.org/1999/xlink" viewBox="0 0 25 25"><defs><style>.cls-1{fill:none;}.cls-2{fill:#b4bcc2;}.cls-3{clip-path:url(#clip-path);}</style><clipPath id="clip-path"><rect class="cls-1" x="-268.87" y="-14.52" width="28.45" height="27.22"/></clipPath></defs><title>SVGs for VOA</title><path class="cls-2" d="M24.36,11.28,12.8,1.63a.46.46,0,0,0-.6,0L.64,11.28a.47.47,0,0,0,.3.83H2.55V22.63a1,1,0,0,0,1.06.85H8.9A.48.48,0,0,0,9.41,23V17.84a.91.91,0,0,1,.94-.86h4.3a.91.91,0,0,1,.94.86V23a.48.48,0,0,0,.51.46h5.29a1,1,0,0,0,1.06-.85V12.11h1.61A.47.47,0,0,0,24.36,11.28Z"/></svg>