<?xml version="1.0" encoding="utf-8"?>
<!-- Generator: Adobe Illustrator 22.0.1, SVG Export Plug-In . SVG Version: 6.00 Build 0)  -->
<svg version="1.1" id="Layer_1" xmlns="http://www.w3.org/2000/svg" xmlns:xlink="http://www.w3.org/1999/xlink" x="0px" y="0px"
	 viewBox="0 0 16.1 20" style="enable-background:new 0 0 16.1 20;" xml:space="preserve">
<style type="text/css">
	.st0{fill:#B4BCC2;}
</style>
<g>
	<path class="st0" d="M5.8,19.5H1.5c-0.5,0-0.9-0.4-0.9-0.9V1.5c0-0.5,0.4-0.9,0.9-0.9h4.3c0.5,0,0.9,0.4,0.9,0.9v17.1
		C6.7,19.1,6.3,19.5,5.8,19.5z"/>
	<path class="st0" d="M14.6,19.5h-4.3c-0.5,0-0.9-0.4-0.9-0.9V1.5c0-0.5,0.4-0.9,0.9-0.9h4.3c0.5,0,0.9,0.4,0.9,0.9v17.1
		C15.6,19.1,15.1,19.5,14.6,19.5z"/>
</g>
</svg>
