<?xml version="1.0" encoding="utf-8"?>
<!-- Generator: Adobe Illustrator 22.0.1, SVG Export Plug-In . SVG Version: 6.00 Build 0)  -->
<svg version="1.1" id="Layer_1" xmlns="http://www.w3.org/2000/svg" xmlns:xlink="http://www.w3.org/1999/xlink" x="0px" y="0px"
	 viewBox="0 0 25 25" style="enable-background:new 0 0 25 25;" xml:space="preserve">
<style type="text/css">
	.st0{fill:#B4BCC2;}
	.st1{fill:#B4BCC2;stroke:#FFFFFF;stroke-width:0.576;stroke-linecap:round;stroke-miterlimit:10;}
</style>
<rect x="13.4" y="2.8" class="st0" width="10.7" height="2.3"/>
<rect x="13.4" y="6" class="st0" width="10.7" height="2.3"/>
<rect x="13.4" y="9.3" class="st0" width="10.7" height="2.3"/>
<path class="st0" d="M1,2.8v8.8h10.7V2.8H1z M4.3,10.3V4.5l5,2.9L4.3,10.3z"/>
<path class="st1" d="M6.7,14.1"/>
<path class="st0" d="M13.4,13.3v8.8h10.7v-8.8H13.4z M16.063,19.906c0,0.199-0.161,0.36-0.36,0.36s-0.36-0.161-0.36-0.36v-4.782
	h5.517c0.199,0,0.36,0.161,0.36,0.36s-0.161,0.36-0.36,0.36h-4.796V19.906z M22.1,20.8H17v-4.1h5.1V20.8z"/>
<path class="st0" d="M1,13.3v8.8h10.7v-8.8H1z M6.9,21.3c0,0.1-0.1,0.2-0.2,0.1c0,0-1.6-1.5-1.7-1.6H4.9H2.8c-0.1,0-0.1-0.1-0.1-0.1
	v-3.5c0-0.1,0.1-0.1,0.1-0.1h1.9h0.1L6.7,14c0.1-0.1,0.2,0,0.2,0.1V21.3z M8.015,19.418c-0.112,0-0.223-0.053-0.293-0.151
	c-0.116-0.161-0.078-0.387,0.084-0.502c0.328-0.234,0.523-0.632,0.523-1.063c0-0.433-0.196-0.831-0.525-1.065
	c-0.162-0.115-0.2-0.34-0.084-0.502c0.116-0.162,0.34-0.199,0.502-0.084c0.518,0.369,0.827,0.986,0.827,1.651
	c0,0.664-0.308,1.28-0.825,1.649C8.161,19.395,8.088,19.418,8.015,19.418z M8.828,20.415c-0.059,0.038-0.125,0.056-0.19,0.056
	c-0.12,0-0.237-0.061-0.306-0.169c-0.105-0.169-0.054-0.391,0.114-0.496c0.691-0.433,1.12-1.243,1.12-2.114
	c0-0.858-0.419-1.662-1.095-2.099c-0.167-0.108-0.215-0.331-0.107-0.498c0.107-0.167,0.331-0.216,0.498-0.107
	c0.892,0.577,1.424,1.588,1.424,2.704C10.286,18.808,9.728,19.852,8.828,20.415z"/>
</svg>