<svg id="Layer_1" data-name="Layer 1" xmlns="http://www.w3.org/2000/svg" xmlns:xlink="http://www.w3.org/1999/xlink" viewBox="0 0 25 25"><defs><style>.cls-1{fill:none;}.cls-2{fill:#b4bcc2;}.cls-3{clip-path:url(#clip-path);}</style><clipPath id="clip-path"><rect class="cls-1" x="-268.87" y="-42.89" width="28.45" height="27.22"/></clipPath></defs><title>SVGs for VOA</title><path class="cls-2" d="M12.5.91A11.59,11.59,0,1,0,24.09,12.5,11.59,11.59,0,0,0,12.5.91Zm0,5.47a4.68,4.68,0,1,1-4.68,4.68A4.68,4.68,0,0,1,12.5,6.38Zm0,16.67a10.53,10.53,0,0,1-8-3.73c.93-2,3.08-3.22,8-3.22,5.26,0,7.39,1.15,8.24,3A10.55,10.55,0,0,1,12.5,23.05Z"/></svg>