<svg id="Layer_1" data-name="Layer 1" xmlns="http://www.w3.org/2000/svg" viewBox="0 0 25 25"><defs><style>.cls-1{fill:#b4bcc2;}</style></defs><title>SVGs for VOA</title><path class="cls-1" d="M21.64,10.91H13.58v-6L17.5,8.85A1.29,1.29,0,1,0,19.32,7L13.43,1.13a1.29,1.29,0,0,0-1.83,0L5.68,7.05A1.29,1.29,0,1,0,7.5,8.88L11.42,5v5.94H3.36A1.66,1.66,0,0,0,1.7,12.57v10a1.65,1.65,0,0,0,1.66,1.65H21.64A1.65,1.65,0,0,0,23.3,22.6v-10A1.66,1.66,0,0,0,21.64,10.91Zm-8.06,7a1.08,1.08,0,1,1-2.16,0V11.56h2.16Z"/></svg>